<svg width="221" height="49" viewBox="0 0 221 49" fill="none" xmlns="http://www.w3.org/2000/svg">
<mask id="mask0_7642_56588" style="mask-type:alpha" maskUnits="userSpaceOnUse" x="6" y="6" width="37" height="37">
<path d="M6.20926 6.16797H42.8613V42.5815H6.20926V6.16797Z" fill="#D9D9D9"/>
</mask>
<g mask="url(#mask0_7642_56588)">
<path d="M26.0606 39.1285V25.2459L38.2779 18.2287V30.4044C38.2779 30.9607 38.1444 31.4665 37.877 31.9217C37.6097 32.3767 37.2344 32.7435 36.7509 33.0217L26.0606 39.1285ZM23.0062 39.1285L12.3161 33.0217C11.8326 32.7435 11.4571 32.3767 11.1897 31.9217C10.9226 31.4665 10.7891 30.9607 10.7891 30.4044V18.2287L23.0062 25.2459V39.1285ZM16.9359 18.2665L12.4307 15.6494L23.0062 9.61835C23.4899 9.34016 23.999 9.20117 24.5335 9.20117C25.068 9.20117 25.5771 9.34016 26.0606 9.61835L29.0767 11.3253L16.9359 18.2665ZM24.5335 22.6286L19.9901 20.0492L32.0929 13.0701L36.6743 15.6874L24.5335 22.6286Z" fill="#FFD60A"/>
</g>
<mask id="mask1_7642_56588" style="mask-type:alpha" maskUnits="userSpaceOnUse" x="-11" y="-11" width="71" height="71">
<path d="M-0.000404358 0H49.0664V48.7475H-0.000404358V0Z" fill="#D9D9D9" stroke="white" stroke-width="20.743"/>
</mask>
<g mask="url(#mask1_7642_56588)">
<path d="M26.4199 38.281V25.4503L37.7318 18.9413V31.7721L26.4199 38.281ZM22.6491 38.281L11.337 31.7721V18.9413L22.6491 25.4503V38.281ZM26.4199 42.5891L39.6173 35.0499C40.2142 34.7065 40.6778 34.2538 41.0076 33.6918C41.3377 33.13 41.5027 32.5057 41.5027 31.8189V16.9278C41.5027 16.241 41.3377 15.6167 41.0076 15.0549C40.6778 14.4929 40.2142 14.0402 39.6173 13.6967L26.4199 6.15768C25.8228 5.81429 25.1944 5.64258 24.5345 5.64258C23.8747 5.64258 23.2463 5.81429 22.6491 6.15768L9.45179 13.6967C8.85463 14.0402 8.39123 14.4929 8.06129 15.0549C7.73136 15.6167 7.56641 16.241 7.56641 16.9278V31.8189C7.56641 32.5057 7.73136 33.13 8.06129 33.6918C8.39123 34.2538 8.85463 34.7065 9.45179 35.0499L22.6491 42.5891C23.2463 42.9323 23.8747 43.1041 24.5345 43.1041C25.1944 43.1041 25.8228 42.9323 26.4199 42.5891ZM16.993 17.8643L13.3639 15.804L24.5345 9.38865L28.211 11.4959L16.993 17.8643ZM24.5345 22.2194L20.8581 20.1121L32.0287 13.6967L35.7051 15.804L24.5345 22.2194Z" fill="#00050D"/>
<path fill-rule="evenodd" clip-rule="evenodd" d="M41.5023 16.8575C41.5025 16.8811 41.5028 16.9049 41.5028 16.9286V31.8196C41.5028 32.5064 41.3377 33.1307 41.0079 33.6925C40.6815 34.2485 40.2245 34.6976 39.6366 35.0396C39.6302 35.0432 39.6239 35.0468 39.6176 35.0507L26.42 42.5898C25.8231 42.933 25.1945 43.1049 24.5346 43.1049C23.8747 43.1049 23.2463 42.933 22.6494 42.5898L9.45186 35.0507C9.44553 35.0468 9.43919 35.0432 9.43285 35.0396C8.84497 34.6976 8.38788 34.2485 8.06148 33.6925C7.73155 33.1307 7.5666 32.5064 7.5666 31.8196V16.9286C7.5666 16.9133 7.56666 16.8982 7.56682 16.8829C7.57398 16.2141 7.73886 15.605 8.06148 15.0556C8.39142 14.4936 8.85493 14.0409 9.45186 13.6975L22.6494 6.15841C22.6508 6.15762 22.6521 6.15686 22.6535 6.1561C23.2493 5.81423 23.8763 5.64331 24.5346 5.64331C25.192 5.64331 25.8183 5.81371 26.4132 6.1545C26.4155 6.1558 26.4178 6.15711 26.42 6.15841L39.6176 13.6975C40.2145 14.0409 40.6779 14.4936 41.0079 15.0556C41.3264 15.5981 41.4912 16.1988 41.5023 16.8575ZM28.3333 2.87525C28.3313 2.87415 28.3294 2.87304 28.3276 2.87194C27.1781 2.21205 25.8953 1.84961 24.5346 1.84961C23.1741 1.84961 21.8913 2.21205 20.7418 2.87194C20.74 2.87304 20.7379 2.87415 20.7361 2.87525L7.5436 10.4115L7.53871 10.4145C6.39985 11.0693 5.44518 11.9824 4.76311 13.144C4.07329 14.3189 3.74805 15.6091 3.74805 16.9286V31.8196C3.74805 33.139 4.07329 34.4293 4.76311 35.6041C5.44518 36.7657 6.39985 37.6788 7.53871 38.3337L7.5436 38.3366L20.7361 45.8729C20.7379 45.874 20.7397 45.8751 20.7418 45.876C21.8913 46.5361 23.1741 46.8986 24.5346 46.8986C25.8953 46.8986 27.1781 46.5361 28.3276 45.876C28.3294 45.8751 28.3315 45.874 28.3333 45.8729L41.5259 38.3366L41.5306 38.3337C42.6695 37.6788 43.6243 36.7657 44.3063 35.6041C44.9961 34.4293 45.3214 33.139 45.3214 31.8196V16.9286C45.3214 15.6091 44.9961 14.3189 44.3063 13.144C43.6243 11.9824 42.6695 11.0693 41.5306 10.4145L41.5259 10.4115L28.3333 2.87525Z" fill="white"/>
</g>
<path d="M214.471 16.5742C217.898 16.5742 220.03 19.111 220.03 22.7002V31.4709H217.034V23.3209C217.034 20.6762 215.874 19.2729 213.688 19.2729C211.394 19.2729 209.775 21.108 209.775 23.6717V31.4709H206.779V16.8981H208.857L209.451 18.9491C210.53 17.4648 212.339 16.5742 214.471 16.5742Z" fill="black"/>
<path d="M198.236 16.5742C201.663 16.5742 203.795 19.111 203.795 22.7002V31.4709H200.8V23.3209C200.8 20.6762 199.639 19.2729 197.454 19.2729C195.16 19.2729 193.54 21.108 193.54 23.6717V31.4709H190.545V16.8981H192.623L193.217 18.9491C194.296 17.4648 196.104 16.5742 198.236 16.5742Z" fill="black"/>
<path d="M185.031 16.8977H187.325V31.4705H184.923L184.627 29.7164C183.304 31.0388 181.469 31.8484 179.337 31.8484C174.992 31.8484 171.754 28.556 171.754 24.1841C171.754 19.8123 174.992 16.5469 179.337 16.5469C181.496 16.5469 183.358 17.3565 184.681 18.7328L185.031 16.8977ZM179.58 28.9608C182.333 28.9608 184.33 26.9368 184.33 24.1841C184.33 21.4315 182.333 19.4075 179.58 19.4075C176.827 19.4075 174.803 21.4585 174.803 24.1841C174.803 26.9098 176.827 28.9608 179.58 28.9608Z" fill="black"/>
<path d="M173.154 12.5801V15.4946H167.622V31.4708H164.519V15.4946H158.986V12.5801H173.154Z" fill="black"/>
<path d="M156.692 16.8977H158.662V29.5815C158.662 34.2232 155.909 37.0568 151.402 37.0568C147.651 37.0568 145.006 35.1138 144.278 31.9293H147.246C147.813 33.5215 149.54 34.4121 151.375 34.4121C153.885 34.4121 155.747 32.7389 155.747 29.9863V29.3116C154.479 30.4181 152.805 31.0657 150.916 31.0657C146.841 31.0657 143.711 27.9083 143.711 23.8063C143.711 19.7313 146.841 16.5469 150.916 16.5469C153.048 16.5469 154.91 17.4105 156.233 18.7868L156.692 16.8977ZM151.24 28.2861C153.831 28.2861 155.72 26.397 155.72 23.8063C155.72 21.2426 153.858 19.3535 151.24 19.3535C148.65 19.3535 146.76 21.2696 146.76 23.8063C146.76 26.3701 148.65 28.2861 151.24 28.2861Z" fill="black"/>
<path d="M136.246 16.5742C139.673 16.5742 141.805 19.111 141.805 22.7002V31.4709H138.81V23.3209C138.81 20.6762 137.649 19.2729 135.463 19.2729C133.169 19.2729 131.55 21.108 131.55 23.6717V31.4709H128.555V16.8981H130.633L131.226 18.9491C132.306 17.4648 134.114 16.5742 136.246 16.5742Z" fill="black"/>
<path d="M118.979 31.8491C114.958 31.8491 112.34 29.2584 112.34 25.3183V16.8984H115.335V24.9135C115.335 27.4503 116.712 28.9885 118.979 28.9885C121.245 28.9885 122.595 27.4233 122.595 24.9135V16.8984H125.59V25.3183C125.59 29.2584 123 31.8491 118.979 31.8491Z" fill="black"/>
<path d="M107.07 16.8977H109.364V31.4705H106.963L106.666 29.7164C105.343 31.0388 103.508 31.8484 101.376 31.8484C97.0314 31.8484 93.793 28.556 93.793 24.1841C93.793 19.8123 97.0314 16.5469 101.376 16.5469C103.535 16.5469 105.397 17.3565 106.72 18.7328L107.07 16.8977ZM101.619 28.9608C104.372 28.9608 106.369 26.9368 106.369 24.1841C106.369 21.4315 104.372 19.4075 101.619 19.4075C98.8665 19.4075 96.8425 21.4585 96.8425 24.1841C96.8425 26.9098 98.8665 28.9608 101.619 28.9608Z" fill="black"/>
<path d="M86.3549 16.5741C89.7553 16.5741 91.8872 18.9489 91.8872 22.7V31.4707H88.8917V23.3207C88.8917 20.676 87.7582 19.2727 85.5453 19.2727C83.2784 19.2727 81.6322 21.1078 81.6322 23.6716V31.4707H78.6367V11.6895H81.6322V18.5711C82.7387 17.3297 84.4119 16.5741 86.3549 16.5741Z" fill="black"/>
<path d="M73.8315 31.4708L72.2123 27.3688H63.7655L62.1732 31.4708H58.8809L66.4641 12.5801H69.3787L77.2049 31.4708H73.8315ZM67.9754 16.6281L64.8449 24.5892H71.1328L67.9754 16.6281Z" fill="black"/>
</svg>
