<svg width="501" height="502" viewBox="0 0 501 502" fill="none" xmlns="http://www.w3.org/2000/svg">
<mask id="mask0_7497_4436" style="mask-type:alpha" maskUnits="userSpaceOnUse" x="84" y="75" width="333" height="351">
<rect width="331.9" height="350.791" transform="matrix(-1 0 0 1 416.52 75.168)" fill="#D9D9D9"/>
</mask>
<g mask="url(#mask0_7497_4436)">
<path d="M267.444 414.677V260.267L402.447 182.219V317.644C402.447 323.831 400.97 329.457 398.017 334.519C395.064 339.582 390.915 343.66 385.571 346.754L267.444 414.677ZM233.693 414.677L115.565 346.754C110.221 343.66 106.073 339.582 103.119 334.519C100.166 329.457 98.6896 323.831 98.6896 317.644V182.219L233.693 260.267V414.677ZM166.613 182.641L116.831 153.53L233.693 86.4508C239.037 83.357 244.662 81.8101 250.568 81.8101C256.475 81.8101 262.1 83.357 267.444 86.4508L300.773 105.436L166.613 182.641ZM250.568 231.157L200.364 202.469L334.101 124.842L384.728 153.952L250.568 231.157Z" fill="#FFD60A"/>
</g>
<mask id="mask1_7497_4436" style="mask-type:alpha" maskUnits="userSpaceOnUse" x="-42" y="-42" width="585" height="585">
<rect x="21.0977" y="-21.0977" width="542.195" height="542.195" transform="matrix(-1 0 0 1 542.765 0.562988)" fill="#D9D9D9" stroke="white" stroke-width="42.1954"/>
</mask>
<g mask="url(#mask1_7497_4436)">
<path d="M271.402 405.25V262.542L396.402 190.146V332.855L271.402 405.25ZM229.736 405.25L104.736 332.855V190.146L229.736 262.542V405.25ZM271.402 453.167L417.236 369.313C423.833 365.493 428.954 360.459 432.6 354.209C436.246 347.959 438.069 341.014 438.069 333.375V167.75C438.069 160.111 436.246 153.167 432.6 146.917C428.954 140.667 423.833 135.632 417.236 131.813L271.402 47.9587C264.805 44.1392 257.861 42.2295 250.569 42.2295C243.277 42.2295 236.333 44.1392 229.736 47.9587L83.9022 131.813C77.3049 135.632 72.1834 140.667 68.5376 146.917C64.8917 153.167 63.0689 160.111 63.0689 167.75V333.375C63.0689 341.014 64.8917 347.959 68.5376 354.209C72.1834 360.459 77.3049 365.493 83.9022 369.313L229.736 453.167C236.333 456.986 243.277 458.896 250.569 458.896C257.861 458.896 264.805 456.986 271.402 453.167ZM167.236 178.167L127.131 155.25L250.569 83.8962L291.194 107.334L167.236 178.167ZM250.569 226.605L209.944 203.167L333.381 131.813L374.006 155.25L250.569 226.605Z" fill="#00050D"/>
<path fill-rule="evenodd" clip-rule="evenodd" d="M438.064 166.961C438.069 167.223 438.071 167.487 438.071 167.751V333.376C438.071 341.015 436.248 347.959 432.602 354.209C428.995 360.392 423.944 365.386 417.448 369.191C417.378 369.232 417.308 369.273 417.237 369.313L271.404 453.168C264.807 456.987 257.862 458.897 250.571 458.897C243.279 458.897 236.335 456.987 229.737 453.168L83.904 369.313C83.8335 369.273 83.7632 369.232 83.6931 369.191C77.1975 365.386 72.1463 360.392 68.5394 354.209C64.8936 347.959 63.0707 341.015 63.0707 333.376V167.751C63.0707 167.582 63.0716 167.413 63.0734 167.244C63.1524 159.804 64.9744 153.029 68.5394 146.918C72.1852 140.668 77.3068 135.633 83.904 131.813L229.737 47.9592C229.752 47.9507 229.767 47.9421 229.782 47.9335C236.366 44.1312 243.295 42.2301 250.571 42.2301C257.835 42.2301 264.754 44.1253 271.329 47.9158C271.354 47.9303 271.379 47.9447 271.404 47.9592L417.237 131.813C423.835 135.633 428.956 140.668 432.602 146.918C436.122 152.951 437.942 159.632 438.064 166.961ZM292.545 11.4422C292.524 11.43 292.503 11.4178 292.482 11.4055C279.78 4.06581 265.605 0.034668 250.571 0.034668C235.536 0.034668 221.361 4.06581 208.659 11.4055C208.638 11.4178 208.617 11.43 208.596 11.4422L62.8167 95.2651L62.7626 95.2964C50.178 102.582 39.6289 112.736 32.0919 125.657C24.4694 138.724 20.8753 153.074 20.8753 167.751V333.376C20.8753 348.053 24.4694 362.403 32.0919 375.47C39.6289 388.391 50.178 398.545 62.7626 405.83L62.8167 405.862L208.596 489.685C208.617 489.696 208.637 489.708 208.658 489.72C221.36 497.061 235.536 501.092 250.571 501.092C265.606 501.092 279.782 497.061 292.484 489.72C292.504 489.708 292.525 489.696 292.545 489.685L438.325 405.862L438.379 405.83C450.963 398.545 461.513 388.391 469.049 375.47C476.672 362.403 480.266 348.053 480.266 333.376V167.751C480.266 153.074 476.672 138.724 469.049 125.657C461.512 112.736 450.963 102.582 438.379 95.2964L438.325 95.2651L292.545 11.4422Z" fill="white"/>
</g>
</svg>
